<svg xmlns="http://www.w3.org/2000/svg" xmlns:xlink="http://www.w3.org/1999/xlink" width="63.186" height="63.015" viewBox="0 0 63.186 63.015">
  <defs>
    <linearGradient id="linear-gradient" x1="0.111" y1="0.194" x2="0.741" y2="1.185" gradientUnits="objectBoundingBox">
      <stop offset="0" stop-color="#59afe8"/>
      <stop offset="0.87" stop-color="#646ce7"/>
    </linearGradient>
  </defs>
  <path id="Path_45379" data-name="Path 45379" d="M54.074,19.208q6.346,4.916,12.7,9.821c.1.075.23.122.233.278-.033.064-.064.125-.094.189q-2.665,5.552-5.332,11.12c-.125.261-.192.422-.522.164q-6.193-4.805-12.405-9.585c-.6-.466-.505-.325-.211-.935l5.233-10.9C53.766,19.169,53.8,19,54.074,19.208ZM46.926,33.57l.239.186,9.974,7.686c.833.644,1.649,1.321,2.515,1.926.383.278.383.48.2.858-.891,1.821-1.757,3.653-2.634,5.482Q54.457,55.444,51.7,61.2q-2.906,6.054-5.829,12.106Q43.856,77.5,41.86,81.693c-.155.328-.253.427-.605.155q-6.224-4.836-12.491-9.627a.458.458,0,0,1-.172-.683q2.465-5.074,4.894-10.168l8.591-17.863q2.31-4.819,4.633-9.635C46.759,33.762,46.787,33.626,46.926,33.57Zm22.632,1.088L91.69,82.126c-.761-.394-1.424-.736-2.087-1.085L77.411,74.6,61.716,66.306q-2.8-1.477-5.6-2.942c-.242-.128-.278-.217-.153-.466q4.719-9.827,9.413-19.659,1.965-4.106,3.945-8.208A.833.833,0,0,1,69.558,34.658Z" transform="translate(-28.503 -19.111)" fill-rule="evenodd" fill="url(#linear-gradient)"/>
</svg>
